<svg width="23" height="29" viewBox="0 0 23 29" fill="none" xmlns="http://www.w3.org/2000/svg">
    <path d="M7.72648 6.11614C5.58188 7.64294 4.36068 8.63394 3.02028 9.41074C2.33518 9.81254 1.38208 9.86614 0.548084 10.0536C0.607684 9.27684 0.309784 8.23214 0.756584 7.75004C4.62868 3.73214 9.18598 0.705436 15.441 0.919636C19.7897 1.05364 22.798 3.46434 22.7683 7.37504C22.7683 10.4018 22.5598 13.9107 20.8918 16.3214C17.8238 20.6875 13.624 24.4375 9.78168 28.3214C9.33488 28.7768 8.08388 28.7232 7.24988 28.6161C7.01158 28.5893 6.74348 27.4911 6.83288 26.9286C7.04138 25.5625 7.66688 24.2232 7.69668 22.8839C7.81578 17.6339 7.72648 12.4107 7.72648 6.08934V6.11614ZM11.4795 21.1161C11.8071 21.1964 12.1347 21.3036 12.4326 21.3839C16.126 18.1696 18.8365 14.4196 19.045 9.59824C19.1046 8.28574 18.777 6.62504 17.8834 5.71434C16.9303 4.75004 15.1133 4.18754 13.6538 4.10714C12.9687 4.08044 11.5986 5.60714 11.5688 6.46434C11.3603 11.3393 11.4795 16.2411 11.4795 21.1161Z"
          fill="white"/>
</svg>
